#!OML:ASF F:\VICON\USERDATA\INSTALL\rory3\rory3.ASF
:FULLY-SPECIFIED
:DEGREES
4236
root 3.15093 17.8592 -6.44536 -899.807 61.9751 183.319
lowerback 11.4372 1.82397 2.82279
upperback 0.906907 2.92428 1.21874
thorax -5.38612 1.41699 -0.778148
lowerneck -16.8178 -6.67832 -11.1726
upperneck 29.1322 -7.98124 8.14479
head 13.4526 -3.38579 3.84396
rclavicle 1.39149e-014 1.70955e-014
rhumerus -30.6533 -4.94365 -81.8525
rradius 38.2704
rwrist 1.07132
rhand -18.2096 11.3311
rfingers 7.12502
rthumb 8.06807 -18.4948
lclavicle 1.39149e-014 1.70955e-014
lhumerus -39.9219 2.75909 85.0192
lradius 28.2288
lwrist -9.22219
lhand -19.1093 24.0063
lfingers 7.12502
lthumb 7.19965 53.8638
rfemur -1.41217 -2.11008 27.8185
rtibia 24.5366
rfoot -16.3136 1.80332
rtoes 10.4578
lfemur -20.3974 -3.36647 -14.1131
ltibia 41.2331
lfoot -7.03107 0.61655
ltoes -9.11066
4237
root 3.23671 17.8571 -6.50626 -899.925 61.9086 183.128
lowerback 11.4002 1.77045 2.81769
upperback 0.914613 2.84829 1.18272
thorax -5.358 1.37966 -0.799527
lowerneck -16.927 -6.69192 -11.1556
upperneck 29.134 -7.99229 8.11794
head 13.4758 -3.39184 3.82595
rclavicle 5.00192e-014 -3.18055e-014
rhumerus -30.6698 -4.71643 -81.8398
rradius 38.553
rwrist 1.04331
rhand -18.2501 11.2718
rfingers 7.12502
rthumb 8.02895 -18.5557
lclavicle 5.00192e-014 -3.18055e-014
lhumerus -39.9532 2.73036 85.0112
lradius 28.2781
lwrist -8.9222
lhand -18.5625 23.9996
lfingers 7.12502
lthumb 7.72743 53.8384
rfemur -0.995565 -2.04203 27.6888
rtibia 24.3588
rfoot -16.5246 1.58936
rtoes 10.1608
lfemur -20.4319 -4.04264 -14.0868
ltibia 39.1183
lfoot -7.12837 1.28585
ltoes -7.08285
4238
root 3.3248 17.8552 -6.56438 -899.894 61.8872 183.094
lowerback 11.3763 1.75737 2.86537
upperback 0.886108 2.83496 1.16902
thorax -5.37209 1.37092 -0.838145
lowerneck -16.9022 -6.69619 -10.997
upperneck 29.0928 -8.00257 7.9646
head 13.4375 -3.4002 3.73376
rclavicle -5.56597e-015 -3.97569e-016
rhumerus -30.7996 -4.41511 -81.8425
rradius 38.8456
rwrist 0.901238
rhand -18.2741 11.2647
rfingers 7.12502
rthumb 8.0058 -18.5637
lclavicle -5.56597e-015 -3.97569e-016
lhumerus -40.0368 2.62676 85.0311
lradius 28.3562
lwrist -8.73482
lhand -18.2588 23.828
lfingers 7.12502
lthumb 8.0206 53.6558
rfemur -0.618383 -1.8323 27.6586
rtibia 24.2078
rfoot -16.6699 1.48535
rtoes 10.3996
lfemur -20.4577 -4.65622 -13.9353
ltibia 36.9696
lfoot -7.24173 1.72211
ltoes -4.05173
4239
root 3.41274 17.8486 -6.62039 -899.71 61.8571 183.132
lowerback 11.27 1.7447 2.896
upperback 0.829464 2.81991 1.2067
thorax -5.37332 1.36209 -0.810719
lowerneck -16.8775 -6.70687 -11.0703
upperneck 29.0736 -7.99781 7.96566
head 13.4278 -3.40729 3.74717
rclavicle -5.75233e-014 3.97569e-015
rhumerus -30.8585 -4.23586 -81.7793
rradius 38.9738
rwrist 0.782899
rhand -18.3303 11.4888
rfingers 7.12502
rthumb 7.95159 -18.3416
lclavicle -5.75233e-014 3.97569e-015
lhumerus -40.1427 2.70075 85.1171
lradius 28.436
lwrist -8.72476
lhand -18.4327 23.881
lfingers 7.12502
lthumb 7.85273 53.7152
rfemur -0.36008 -1.72881 27.6714
rtibia 24.0491
rfoot -16.7254 1.22888
rtoes 9.7662
lfemur -20.5856 -5.13567 -13.7181
ltibia 34.8364
lfoot -7.1424 1.80045
ltoes -3.64329
4240
root 3.50245 17.8381 -6.67878 -899.704 61.9637 183.022
lowerback 11.1683 1.78153 2.79255
upperback 0.805114 2.85349 1.24485
thorax -5.34803 1.38126 -0.71468
lowerneck -16.9201 -6.71828 -11.2018
upperneck 29.0896 -7.98318 8.00502
head 13.4514 -3.41016 3.78771
rclavicle 1.11816e-015 6.36111e-015
rhumerus -30.8436 -4.39955 -81.5931
rradius 38.9492
rwrist 0.95914
rhand -18.332 11.8535
rfingers 7.12502
rthumb 7.94989 -17.977
lclavicle 1.11816e-015 6.36111e-015
lhumerus -40.2256 2.80441 85.25
lradius 28.5453
lwrist -8.52324
lhand -18.8128 23.9907
lfingers 7.12502
lthumb 7.48581 53.8383
rfemur -0.0304054 -1.81204 27.5544
rtibia 23.8985
rfoot -16.862 1.16225
rtoes 8.24877
lfemur -20.5832 -5.45778 -13.6176
ltibia 32.7458
lfoot -7.0444 1.95846
ltoes -6.39943
4241
root 3.59188 17.8292 -6.73984 -899.526 62.2186 183.143
lowerback 11.0914 1.8354 2.76834
upperback 0.789551 2.92195 1.2952
thorax -5.32329 1.41626 -0.656293
lowerneck -16.8765 -6.67911 -11.1434
upperneck 28.9977 -7.92822 7.93761
head 13.3896 -3.39174 3.75775
rclavicle 4.48508e-014 -2.94201e-014
rhumerus -30.8655 -4.37729 -81.5023
rradius 39.0137
rwrist 0.886797
rhand -18.2568 12.0216
rfingers 7.12502
rthumb 8.02251 -17.8061
lclavicle 4.48508e-014 -2.94201e-014
lhumerus -40.2979 2.97998 85.2299
lradius 28.6483
lwrist -8.49409
lhand -18.6386 24.0585
lfingers 7.12502
lthumb 7.65394 53.9
rfemur 0.339799 -1.83103 27.5179
rtibia 23.8214
rfoot -17.0781 1.45453
rtoes 8.37678
lfemur -20.5006 -5.79537 -13.3856
ltibia 30.6864
lfoot -7.02483 2.23385
ltoes -7.3975
4242
root 3.67862 17.8241 -6.80403 -899.482 62.3461 183.112
lowerback 11.0116 1.82924 2.85621
upperback 0.781715 2.91646 1.23074
thorax -5.27925 1.41083 -0.768884
lowerneck -16.7969 -6.63278 -11.0502
upperneck 28.8454 -7.91911 8.00449
head 13.3049 -3.3731 3.76675
rclavicle -8.84592e-015 3.97569e-015
rhumerus -30.9559 -4.0542 -81.6396
rradius 39.2556
rwrist 0.620571
rhand -18.4073 11.6091
rfingers 7.12502
rthumb 7.87725 -18.2241
lclavicle -8.84592e-015 3.97569e-015
lhumerus -40.3508 3.00057 85.0992
lradius 28.7478
lwrist -8.57063
lhand -18.0115 23.9679
lfingers 7.12502
lthumb 8.25923 53.7864
rfemur 0.701698 -1.70687 27.4349
rtibia 23.769
rfoot -17.2296 1.51964
rtoes 8.84996
lfemur -20.4857 -6.14025 -13.2521
ltibia 28.7048
lfoot -7.16512 2.26899
ltoes -5.46932
